<?xml version="1.0" standalone="no"?>
<!DOCTYPE svg PUBLIC "-//W3C//DTD SVG 20010904//EN"
 "http://www.w3.org/TR/2001/REC-SVG-20010904/DTD/svg10.dtd">
<svg version="1.0" xmlns="http://www.w3.org/2000/svg"
 width="200.000000pt" height="200.000000pt" viewBox="0 0 200.000000 200.000000"
 preserveAspectRatio="xMidYMid meet">

<g transform="translate(0.000000,200.000000) scale(0.100000,-0.100000)"
fill="#000000" stroke="none">
<path d="M832 1857 c-24 -13 -40 -25 -37 -28 3 -3 -1 -6 -8 -6 -7 0 -66 -32
-131 -71 -64 -40 -121 -72 -126 -72 -4 0 -10 -3 -12 -8 -4 -9 -177 -112 -189
-112 -5 0 -9 -3 -9 -8 0 -4 -20 -18 -45 -31 -25 -13 -45 -28 -45 -32 0 -5 -6
-9 -13 -9 -8 0 -24 -9 -37 -20 -13 -11 -27 -20 -32 -20 -9 0 -11 -306 -2 -362
6 -37 8 -38 46 -36 22 1 45 6 51 12 7 6 39 11 72 12 108 1 205 22 205 44 0 5
9 10 20 10 11 0 20 4 20 8 0 5 18 16 40 26 22 10 40 24 40 32 0 8 7 14 15 14
8 0 19 9 25 21 9 15 18 19 34 15 16 -4 29 1 45 17 11 13 18 26 15 30 -4 3 1
13 10 22 9 9 16 23 16 31 0 8 9 24 19 35 10 11 22 39 25 63 4 23 13 54 21 70
17 32 20 96 5 96 -6 0 -10 31 -11 73 0 39 -4 95 -7 122 -6 43 -4 53 13 67 27
23 19 22 -33 -5z"/>
<path d="M1204 1454 c4 -181 9 -358 11 -394 3 -36 2 -70 -2 -76 -9 -11 -101
-74 -109 -74 -3 0 -12 -6 -19 -12 -7 -7 -45 -33 -84 -57 l-71 -45 0 -398 c0
-386 1 -398 19 -398 11 0 21 3 23 8 2 4 55 38 118 77 63 38 117 73 118 77 2 4
9 8 16 8 7 0 35 16 62 35 27 19 55 35 61 35 7 0 13 3 13 8 0 6 120 82 253 160
12 7 34 21 49 30 14 9 67 42 117 72 l90 55 1 416 0 415 -23 20 c-13 10 -41 28
-63 39 -21 11 -55 29 -74 41 -19 11 -64 37 -100 56 -36 19 -90 49 -120 66 -30
16 -71 38 -90 48 -19 11 -37 22 -40 25 -3 3 -18 12 -35 20 -16 8 -52 28 -78
43 l-49 29 6 -329z"/>
<path d="M705 965 c-27 -18 -55 -37 -61 -42 -16 -13 -48 -33 -64 -40 -8 -4
-20 -12 -27 -17 -6 -6 -47 -36 -92 -66 -86 -59 -99 -80 -51 -80 17 0 40 -9 52
-20 12 -11 34 -25 49 -32 15 -7 26 -15 24 -18 -2 -3 8 -7 22 -8 15 -1 34 -8
42 -16 9 -8 32 -21 51 -29 42 -19 65 -37 73 -57 4 -12 6 -11 6 3 1 26 31 21
31 -5 0 -21 2 -20 16 7 14 26 15 59 11 233 -3 111 -9 207 -12 212 -9 15 -15
13 -70 -25z m-275 -219 c0 -2 -7 -6 -15 -10 -8 -3 -15 -1 -15 4 0 6 7 10 15
10 8 0 15 -2 15 -4z"/>
</g>
</svg>
